# xmcd
#
# Track frame offsets:
#	150
#	32065
#	45300
#	53205
#	62056
#	77185
#	92110
#	104864
#	127659
#	144437
#	161848
#	177401
#	193019
#	205242
#	230272
#	255519
#	283600
#	305561
#	326596
#	343531
#
# Disc length: 4766 seconds
#
# Revision: 0
# Processed by: cddbd v1.4PL0 Copyright (c) Steve Scherf et al.
# Submitted via: audiograbber 1.81.02
#
DISCID=20129c14
DTITLE=Mix - CD - Mix für Günter
DYEAR=1900
DGENRE=
TTITLE0=Für Günter CD Blues Mix - Allman Brothers Band - B.B. King Medley
TTITLE1=Für Günter CD Blues Mix - B. B. King - Stand by me
TTITLE2=Für Günter CD Blues Mix - B. B. King &Tracy Chapman - The thrill is gon
TTITLE2=e
TTITLE3=Für Günter CD Blues Mix - BB King with Mick Fleetwood and Stevie Nicks - 
TTITLE3=Can't get enoug
TTITLE4=Für Günter CD Blues Mix - Blues Brothers - Everybody Needs Somebody
TTITLE5=Für Günter CD Blues Mix - Blues Brothers - Jailhouse rock
TTITLE6=Für Günter CD Blues Mix - Bob Marley and Sublime - Do it twice
TTITLE7=Für Günter CD Blues Mix - Bon Jovi  - Knockin´ on heaven´s door
TTITLE8=Für Günter CD Blues Mix - Bon Jovi - House of the rising sun
TTITLE9=Für Günter CD Blues Mix - Carey Bell - Carey Bell's blues harp
TTITLE10=Für Günter CD Blues Mix - George Thorogood - Bad to the bone
TTITLE11=Für Günter CD Blues Mix - George Thorogood - Born to be Wild
TTITLE12=Für Günter CD Blues Mix - George Thorogood - Hot Rod Lincoln
TTITLE13=Für Günter CD Blues Mix - Luther Allison - Living in the house of the 
TTITLE13=blues
TTITLE14=Für Günter CD Blues Mix - Pink Floyd - Wish you were here (live)
TTITLE15=Für Günter CD Blues Mix - Ronnie Earl - Blues for Henry
TTITLE16=Für Günter CD Blues Mix - Stevie Ray Vaughan and Lonnie Mack- Oreo cooki
TTITLE16=e blues
TTITLE17=Für Günter CD Blues Mix - The Jeff Healey Band - Angel eyes
TTITLE18=Für Günter CD Blues Mix - The Jeff Healey Band - Data track(1)
TTITLE19=Für Günter CD Blues Mix - Orchester Eric Frantzen - Wer hat an der Uhr
TTITLE19=gedreht
EXTD=Diese CD wurde für Günter hergestellt! 11.07.2002
EXTT0=Allman Brothers Band - B.B. King Medley
EXTT1=B. B. King - Stand by me
EXTT2=B. B. King &Tracy Chapman - The thrill is gone
EXTT3=BB King with Mick Fleetwood and Stevie Nicks - Can't get enoug
EXTT4=Blues Brothers - Everybody Needs Somebody
EXTT5=Blues Brothers - Jailhouse rock
EXTT6=Bob Marley and Sublime - Do it twice
EXTT7=Bon Jovi  - Knockin´ on heaven´s door
EXTT8=Bon Jovi - House of the rising sun
EXTT9=Carey Bell - Carey Bell's blues harp
EXTT10=George Thorogood - Bad to the bone
EXTT11=George Thorogood - Born to be Wild
EXTT12=George Thorogood - Hot Rod Lincoln
EXTT13=Luther Allison - Living in the house of the blues
EXTT14=Pink Floyd - Wish you were here (live)
EXTT15=Ronnie Earl - Blues for Henry
EXTT16=Stevie Ray Vaughan and Lonnie Mack- Oreo cookie blues
EXTT17=The Jeff Healey Band - Angel eyes
EXTT18=The Jeff Healey Band - Data track(1)
EXTT19=Orchester Eric Frantzen - Wer hat an der Uhr gedreht
PLAYORDER=
